<svg width="40" height="40" viewBox="0 0 40 40" fill="none" xmlns="http://www.w3.org/2000/svg">
<rect width="40" height="40" rx="20" fill="black"/>
<path d="M16.5 27C16.2033 27 15.9133 27.088 15.6666 27.2528C15.42 27.4176 15.2277 27.6519 15.1142 27.926C15.0006 28.2001 14.9709 28.5017 15.0288 28.7926C15.0867 29.0836 15.2296 29.3509 15.4393 29.5607C15.6491 29.7704 15.9164 29.9133 16.2074 29.9712C16.4983 30.0291 16.7999 29.9993 17.074 29.8858C17.3481 29.7723 17.5824 29.58 17.7472 29.3334C17.912 29.0867 18 28.7967 18 28.5C18 28.1022 17.842 27.7206 17.5607 27.4393C17.2794 27.158 16.8978 27 16.5 27ZM27 24H15C14.7348 24 14.4804 23.8946 14.2929 23.7071C14.1054 23.5196 14 23.2652 14 23C14 22.7348 14.1054 22.4804 14.2929 22.2929C14.4804 22.1054 14.7348 22 15 22H23.4912C24.1426 21.9979 24.7758 21.7847 25.2959 21.3925C25.816 21.0002 26.195 20.45 26.376 19.8242L27.9614 14.2749C28.004 14.1261 28.0114 13.9694 27.9831 13.8172C27.9548 13.665 27.8915 13.5215 27.7983 13.3979C27.7051 13.2743 27.5845 13.1741 27.446 13.105C27.3075 13.036 27.1548 13 27 13H14.7391C14.5321 12.4174 14.1504 11.9127 13.6462 11.5548C13.142 11.1969 12.5397 11.0032 11.9214 11H11C10.7348 11 10.4804 11.1054 10.2929 11.2929C10.1054 11.4804 10 11.7348 10 12C10 12.2652 10.1054 12.5196 10.2929 12.7071C10.4804 12.8946 10.7348 13 11 13H11.9214C12.1385 13.0008 12.3495 13.0718 12.5228 13.2025C12.6961 13.3332 12.8224 13.5166 12.8828 13.7251L13.0383 14.2698L13.0386 14.2749L14.6792 20.0171C13.9158 20.0992 13.2129 20.4709 12.7153 21.0557C12.2177 21.6405 11.9632 22.3938 12.0043 23.1606C12.0454 23.9273 12.379 24.6491 12.9363 25.1773C13.4935 25.7055 14.2322 26 15 26H27C27.2652 26 27.5196 25.8946 27.7071 25.7071C27.8946 25.5196 28 25.2652 28 25C28 24.7348 27.8946 24.4804 27.7071 24.2929C27.5196 24.1054 27.2652 24 27 24ZM25.6743 15L24.4531 19.2744C24.3928 19.4831 24.2664 19.6666 24.093 19.7974C23.9196 19.9282 23.7084 19.9993 23.4912 20H16.7544L16.4994 19.1078L15.3264 15H25.6743ZM24.5 27C24.2033 27 23.9133 27.088 23.6666 27.2528C23.42 27.4176 23.2277 27.6519 23.1142 27.926C23.0006 28.2001 22.9709 28.5017 23.0288 28.7926C23.0867 29.0836 23.2296 29.3509 23.4393 29.5607C23.6491 29.7704 23.9164 29.9133 24.2074 29.9712C24.4983 30.0291 24.7999 29.9993 25.074 29.8858C25.3481 29.7723 25.5824 29.58 25.7472 29.3334C25.912 29.0867 26 28.7967 26 28.5C26 28.1022 25.842 27.7206 25.5607 27.4393C25.2794 27.158 24.8978 27 24.5 27Z" fill="white"/>
</svg>
